<svg width="204" height="227" viewBox="0 0 204 227" fill="none" xmlns="http://www.w3.org/2000/svg">
<path d="M15.6767 171.493L3.03994 149.787L2.7706 148.566L2.99288 171.616L0.288712 171.642L0 141.703L1.41647 141.689L14.1176 163.395L14.3876 164.68L14.1647 141.566L16.8045 141.541L17.0932 171.48L15.6767 171.493Z" fill="#614551"/>
<path d="M59.0048 164.123L49.5402 164.214L47.6114 171.187L44.8428 171.213L53.3111 141.254L54.7275 141.241L63.8364 171.03L61.0678 171.057L59.0048 164.123ZM50.2236 161.632L58.2718 161.554L54.2114 147.814L54.1365 146.72L54.0826 147.815L50.2236 161.632Z" fill="#614551"/>
<path d="M110.709 170.577L109.292 170.591L103.28 148.112L103.205 146.953L103.087 148.114L97.51 170.704L96.1579 170.717L87.8854 140.855L90.5896 140.829L96.6678 163.501L96.7434 164.659L96.7966 163.499L102.372 140.716L103.853 140.701L109.867 163.373L109.942 164.532L109.995 163.372L115.635 140.588L118.34 140.562L110.709 170.577Z" fill="#614551"/>
<path d="M157.128 163.176L147.663 163.268L145.734 170.241L142.966 170.267L151.434 140.308L152.851 140.294L161.959 170.084L159.191 170.111L157.128 163.176ZM148.347 160.685L156.395 160.608L152.335 146.867L152.26 145.773L152.206 146.869L148.347 160.685Z" fill="#614551"/>
<path d="M195.433 142.394L195.697 169.757L192.992 169.783L192.729 142.42L185.582 142.489L185.557 139.913L202.49 139.75L202.515 142.325L195.433 142.394Z" fill="#614551"/>
<path d="M15.8673 217.982C9.62195 218.042 3.79937 215.201 3.73232 208.247C3.67892 202.71 8.27304 198.352 15.6773 198.28L17.9308 198.259L17.9128 196.391L19.5868 196.375L19.7942 217.88L15.8667 217.918L15.8673 217.982ZM18.1046 216.286L17.9475 199.997L14.6639 200.029C9.96381 200.074 5.35976 203.402 5.40694 208.296C5.45662 213.446 9.67082 216.432 14.8216 216.382L18.1052 216.351L18.1046 216.286ZM10.3232 190.605C10.3152 189.768 10.9522 189.054 11.8536 189.045C12.6906 189.037 13.4056 189.738 13.4137 190.575C13.4218 191.412 12.7848 192.127 11.8834 192.135C11.0464 192.143 10.3313 191.442 10.3232 190.605ZM17.0193 190.54C17.0112 189.703 17.6482 188.989 18.5496 188.98C19.3866 188.972 20.1017 189.674 20.1097 190.511C20.1178 191.348 19.4808 192.062 18.5794 192.071C17.678 192.08 17.0273 191.377 17.0193 190.54Z" fill="#614551"/>
<path d="M28.5189 187.79L26.8449 187.806L27.1354 217.938L28.8095 217.922L28.5189 187.79Z" fill="#614551"/>
<path d="M36.853 224.091L37.6113 222.602C39.4234 223.551 40.9755 224.244 42.907 224.225C46.3838 224.192 48.4918 222.433 48.4632 219.471L48.4458 217.669L46.1924 217.69C39.947 217.75 33.9338 215.168 33.8642 207.957C33.8083 202.163 38.4693 198.061 46.0024 197.988L49.9298 197.951L50.1037 215.978L55.8339 215.923L55.8501 217.597L50.1198 217.652L50.1372 219.455C50.1751 223.383 47.237 225.858 42.7944 225.901C40.4766 225.923 38.8601 225.23 36.853 224.091ZM45.2104 216.026L48.4941 215.994L48.337 199.705L45.0534 199.736C40.3533 199.782 35.5542 202.919 35.6032 208.005C35.6554 213.413 40.0596 216.075 45.2104 216.026Z" fill="#614551"/>
<path d="M63.7539 215.847L55.1907 215.929L55.2069 217.603L63.7701 217.521L63.7539 215.847Z" fill="#614551"/>
<path d="M71.544 215.772L62.9808 215.854L62.9969 217.528L71.5601 217.446L71.544 215.772Z" fill="#614551"/>
<path d="M79.3351 215.696L70.7719 215.779L70.7881 217.453L79.3513 217.37L79.3351 215.696Z" fill="#614551"/>
<path d="M87.1252 215.621L78.562 215.704L78.5781 217.378L87.1413 217.295L87.1252 215.621Z" fill="#614551"/>
<path d="M93.4354 215.56L84.8722 215.643L84.8884 217.317L93.4516 217.235L93.4354 215.56Z" fill="#614551"/>
<path d="M101.225 215.485L92.6623 215.568L92.6784 217.242L101.242 217.159L101.225 215.485Z" fill="#614551"/>
<path d="M109.017 215.41L100.453 215.493L100.47 217.167L109.033 217.084L109.017 215.41Z" fill="#614551"/>
<path d="M116.807 215.335L108.243 215.418L108.26 217.092L116.823 217.009L116.807 215.335Z" fill="#614551"/>
<path d="M124.598 215.26L116.035 215.343L116.051 217.017L124.614 216.934L124.598 215.26Z" fill="#614551"/>
<path d="M131.616 215.192L123.052 215.275L123.068 216.949L131.632 216.866L131.616 215.192Z" fill="#614551"/>
<path d="M139.406 215.117L130.842 215.2L130.859 216.874L139.422 216.791L139.406 215.117Z" fill="#614551"/>
<path d="M147.26 215.041L138.697 215.124L138.713 216.798L147.277 216.715L147.26 215.041Z" fill="#614551"/>
<path d="M155.052 214.966L146.488 215.049L146.505 216.723L155.068 216.64L155.052 214.966Z" fill="#614551"/>
<path d="M162.842 214.891L154.278 214.974L154.295 216.648L162.858 216.565L162.842 214.891Z" fill="#614551"/>
<path d="M170.633 214.816L162.07 214.899L162.086 216.573L170.649 216.49L170.633 214.816Z" fill="#614551"/>
<path d="M178.423 214.741L169.86 214.823L169.876 216.497L178.439 216.415L178.423 214.741Z" fill="#614551"/>
<path d="M186.214 214.666L177.651 214.748L177.667 216.422L186.23 216.34L186.214 214.666Z" fill="#614551"/>
<path d="M194.004 214.591L185.441 214.673L185.457 216.347L194.02 216.265L194.004 214.591Z" fill="#614551"/>
<path d="M193.232 214.598L197.932 214.552L197.758 196.525L199.432 196.508L199.622 216.21L193.248 216.272L193.232 214.598ZM196.861 190.287C196.853 189.45 197.49 188.736 198.391 188.727C199.228 188.719 199.943 189.42 199.951 190.257C199.96 191.094 199.322 191.809 198.421 191.818C197.583 191.761 196.869 191.124 196.861 190.287Z" fill="#614551"/>
<path d="M116.016 56.4567C128.996 57.3234 139.878 67.2047 141.294 80.3373C142.892 95.0341 132.03 108.175 117.042 109.74C102.053 111.305 88.65 100.654 87.0522 85.9575C86.1444 77.5541 89.3156 69.6694 95.0035 64.1545" stroke="#614551" stroke-width="3.375" stroke-miterlimit="10" stroke-linecap="round"/>
<path d="M149.071 69.8445C151.249 90.1435 136.259 108.366 115.556 110.5C94.8537 112.634 76.2676 97.9341 74.0892 77.635C71.9109 57.336 86.9014 39.1135 107.604 36.9795C128.343 34.8092 146.892 49.5454 149.071 69.8445Z" stroke="#614551" stroke-width="3.375" stroke-miterlimit="10" stroke-linecap="round"/>
<path d="M112.439 111.038C86.8764 113.67 63.9215 95.505 61.2349 70.4404" stroke="#614551" stroke-width="3.375" stroke-miterlimit="10" stroke-linecap="round"/>
<path d="M61.0296 63.0207C62.2676 41.0566 79.5955 22.6214 102.635 20.2382C128.198 17.6063 151.153 35.7715 153.839 60.8361" stroke="#614551" stroke-width="3.375" stroke-miterlimit="10" stroke-linecap="round"/>
<path d="M101.784 3.39753C126.527 2.43672 149.822 17.8387 157.369 42.1872C166.316 71.1214 149.701 101.669 120.193 110.475C90.6839 119.28 59.5273 102.951 50.5441 74.0164C44.1014 53.1619 50.9398 31.4654 66.2909 17.6808" stroke="#614551" stroke-width="3.375" stroke-miterlimit="10" stroke-linecap="round"/>
<path d="M109.669 58.1149C109.664 60.1152 108.029 61.7116 105.988 61.7069C103.948 61.7022 102.32 60.0981 102.325 58.0978C102.329 56.0975 103.965 54.5011 106.005 54.5059C108.008 54.5105 109.673 56.151 109.669 58.1149Z" stroke="#614551" stroke-width="3.375" stroke-miterlimit="10" stroke-linecap="round"/>
<path d="M77.7159 13.816C79.744 13.8056 81.3794 12.1852 81.3686 10.1967C81.3579 8.20811 79.7051 6.60446 77.677 6.61481C75.6489 6.62516 74.0136 8.24558 74.0243 10.2341C74.035 12.2227 75.6878 13.8263 77.7159 13.816Z" stroke="#614551" stroke-width="3.375" stroke-miterlimit="10" stroke-linecap="round"/>
<path d="M92.0236 5.70207C92.019 7.70237 90.3832 9.29881 88.3431 9.29406C86.3031 9.28932 84.6748 7.68529 84.6794 5.685C84.6841 3.68471 86.3198 2.08827 88.3599 2.09301C90.3999 2.09775 92.0283 3.70178 92.0236 5.70207Z" stroke="#614551" stroke-width="3.375" stroke-miterlimit="10" stroke-linecap="round"/>
</svg>
