<svg width="355" height="115" viewBox="0 0 355 115" fill="none" xmlns="http://www.w3.org/2000/svg">
<path d="M70.0156 56.7067C82.9959 57.5734 93.878 67.4547 95.2941 80.5873C96.892 95.2841 86.0305 108.425 71.0416 109.99C56.0527 111.555 42.6501 100.904 41.0522 86.2075C40.1444 77.8041 43.3156 69.9194 49.0035 64.4045" stroke="#614551" stroke-width="3.375" stroke-miterlimit="10" stroke-linecap="round"/>
<path d="M103.071 70.0946C105.249 90.3936 90.2586 108.616 69.5561 110.75C48.8537 112.884 30.2676 98.1842 28.0893 77.8851C25.9109 57.5861 40.9015 39.3636 61.6039 37.2296C82.3435 35.0593 100.892 49.7955 103.071 70.0946Z" stroke="#614551" stroke-width="3.375" stroke-miterlimit="10" stroke-linecap="round"/>
<path d="M66.4391 111.288C40.8765 113.92 17.9215 95.7551 15.235 70.6906" stroke="#614551" stroke-width="3.375" stroke-miterlimit="10" stroke-linecap="round"/>
<path d="M15.0297 63.2707C16.2677 41.3066 33.5955 22.8714 56.6354 20.4882C82.198 17.8563 105.153 36.0215 107.84 61.0861" stroke="#614551" stroke-width="3.375" stroke-miterlimit="10" stroke-linecap="round"/>
<path d="M55.7843 3.64729C80.527 2.68647 103.822 18.0884 111.37 42.4369C120.316 71.3712 103.702 101.919 74.1928 110.725C44.684 119.53 13.5274 103.201 4.54415 74.2662C-1.8985 53.4117 4.93981 31.7152 20.2909 17.9306" stroke="#614551" stroke-width="3.375" stroke-miterlimit="10" stroke-linecap="round"/>
<path d="M63.669 58.3649C63.6643 60.3652 62.0286 61.9616 59.9885 61.9569C57.9484 61.9522 56.3201 60.3481 56.3248 58.3478C56.3294 56.3475 57.9652 54.7511 60.0052 54.7559C62.0082 54.7605 63.6735 56.401 63.669 58.3649Z" stroke="#614551" stroke-width="3.375" stroke-miterlimit="10" stroke-linecap="round"/>
<path d="M31.7159 14.0659C33.744 14.0555 35.3794 12.4351 35.3687 10.4465C35.3579 8.45799 33.7051 6.85433 31.6771 6.86468C29.649 6.87503 28.0136 8.49546 28.0243 10.484C28.0351 12.4726 29.6879 14.0762 31.7159 14.0659Z" stroke="#614551" stroke-width="3.375" stroke-miterlimit="10" stroke-linecap="round"/>
<path d="M46.0237 5.95232C46.019 7.95261 44.3832 9.54905 42.3432 9.54431C40.3031 9.53957 38.6748 7.93554 38.6794 5.93524C38.6841 3.93495 40.3199 2.33851 42.3599 2.34325C44.4 2.348 46.0283 3.95202 46.0237 5.95232Z" stroke="#614551" stroke-width="3.375" stroke-miterlimit="10" stroke-linecap="round"/>
<path d="M166.677 46.7432L154.04 25.0366L153.771 23.8157L153.993 46.8655L151.289 46.8916L151 16.9526L152.416 16.939L165.118 38.645L165.388 39.9302L165.165 16.816L167.804 16.7906L168.093 46.7296L166.677 46.7432Z" fill="#614551"/>
<path d="M210.005 39.3727L200.54 39.464L198.611 46.4368L195.843 46.4635L204.311 16.5044L205.728 16.4908L214.836 46.2803L212.068 46.307L210.005 39.3727ZM201.224 36.8817L209.272 36.8041L205.211 23.0636L205.136 21.9697L205.083 23.0649L201.224 36.8817Z" fill="#614551"/>
<path d="M261.709 45.8268L260.292 45.8404L254.28 23.3616L254.205 22.2033L254.087 23.3635L248.51 45.9541L247.158 45.9671L238.885 16.1051L241.59 16.079L247.668 38.7504L247.743 39.9087L247.797 38.7492L253.372 15.9654L254.853 15.9511L260.867 38.6231L260.942 39.7814L260.995 38.6219L266.635 15.8375L269.34 15.8114L261.709 45.8268Z" fill="#614551"/>
<path d="M308.128 38.4265L298.663 38.5178L296.734 45.4906L293.966 45.5173L302.434 15.5583L303.851 15.5446L312.96 45.3342L310.191 45.3609L308.128 38.4265ZM299.347 35.9356L307.395 35.858L303.335 22.1175L303.26 21.0235L303.206 22.1187L299.347 35.9356Z" fill="#614551"/>
<path d="M346.433 17.6436L346.697 45.0072L343.992 45.0333L343.729 17.6697L336.582 17.7386L336.557 15.1632L353.49 14.9999L353.515 17.5753L346.433 17.6436Z" fill="#614551"/>
<path d="M166.867 93.2321C160.622 93.2923 154.799 90.4509 154.732 83.4973C154.679 77.9602 159.273 73.6017 166.677 73.5303L168.931 73.5086L168.913 71.6414L170.587 71.6253L170.794 93.1298L166.867 93.1677L166.867 93.2321ZM169.105 91.5364L168.948 75.247L165.664 75.2787C160.964 75.324 156.36 78.6523 156.407 83.5456C156.457 88.6964 160.671 91.6821 165.822 91.6324L169.105 91.6008L169.105 91.5364ZM161.323 65.855C161.315 65.018 161.952 64.3036 162.854 64.2949C163.691 64.2868 164.406 64.9882 164.414 65.8252C164.422 66.6622 163.785 67.3767 162.883 67.3854C162.046 67.3935 161.331 66.692 161.323 65.855ZM168.019 65.7905C168.011 64.9535 168.648 64.239 169.55 64.2303C170.387 64.2223 171.102 64.9237 171.11 65.7607C171.118 66.5977 170.481 67.3121 169.579 67.3208C168.678 67.3295 168.027 66.6275 168.019 65.7905Z" fill="#614551"/>
<path d="M179.519 63.0399L177.845 63.056L178.135 93.1882L179.809 93.172L179.519 63.0399Z" fill="#614551"/>
<path d="M187.853 99.3407L188.611 97.8524C190.423 98.8007 191.976 99.4941 193.907 99.4754C197.384 99.4419 199.492 97.683 199.463 94.7213L199.446 92.9185L197.192 92.9403C190.947 93.0005 184.934 90.4185 184.864 83.2074C184.808 77.4127 189.469 73.3111 197.002 73.2385L200.93 73.2006L201.104 91.2284L206.834 91.1731L206.85 92.8471L201.12 92.9024L201.137 94.7052C201.175 98.6327 198.237 101.108 193.794 101.151C191.477 101.173 189.86 100.48 187.853 99.3407ZM196.21 91.2756L199.494 91.2439L199.337 74.9545L196.053 74.9862C191.353 75.0315 186.554 78.1686 186.603 83.255C186.655 88.6633 191.06 91.3252 196.21 91.2756Z" fill="#614551"/>
<path d="M214.754 91.0967L206.191 91.1793L206.207 92.8533L214.77 92.7708L214.754 91.0967Z" fill="#614551"/>
<path d="M222.544 91.0215L213.981 91.1041L213.997 92.7781L222.56 92.6956L222.544 91.0215Z" fill="#614551"/>
<path d="M230.335 90.9465L221.772 91.0291L221.788 92.7031L230.351 92.6205L230.335 90.9465Z" fill="#614551"/>
<path d="M238.125 90.8713L229.562 90.9539L229.578 92.6279L238.141 92.5453L238.125 90.8713Z" fill="#614551"/>
<path d="M244.435 90.8105L235.872 90.8931L235.888 92.5671L244.452 92.4845L244.435 90.8105Z" fill="#614551"/>
<path d="M252.225 90.7353L243.662 90.8179L243.678 92.4919L252.242 92.4093L252.225 90.7353Z" fill="#614551"/>
<path d="M260.017 90.6602L251.453 90.7428L251.47 92.4168L260.033 92.3342L260.017 90.6602Z" fill="#614551"/>
<path d="M267.807 90.585L259.243 90.6676L259.26 92.3416L267.823 92.259L267.807 90.585Z" fill="#614551"/>
<path d="M275.598 90.51L267.035 90.5925L267.051 92.2665L275.614 92.184L275.598 90.51Z" fill="#614551"/>
<path d="M282.616 90.4423L274.052 90.5249L274.069 92.1989L282.632 92.1163L282.616 90.4423Z" fill="#614551"/>
<path d="M290.406 90.3671L281.842 90.4497L281.859 92.1237L290.422 92.0411L290.406 90.3671Z" fill="#614551"/>
<path d="M298.26 90.2914L289.697 90.374L289.713 92.048L298.277 91.9655L298.26 90.2914Z" fill="#614551"/>
<path d="M306.052 90.2163L297.488 90.2988L297.505 91.9728L306.068 91.8903L306.052 90.2163Z" fill="#614551"/>
<path d="M313.842 90.1412L305.278 90.2238L305.295 91.8978L313.858 91.8152L313.842 90.1412Z" fill="#614551"/>
<path d="M321.633 90.066L313.07 90.1486L313.086 91.8226L321.649 91.74L321.633 90.066Z" fill="#614551"/>
<path d="M329.423 89.9909L320.86 90.0735L320.876 91.7475L329.439 91.6649L329.423 89.9909Z" fill="#614551"/>
<path d="M337.214 89.9157L328.651 89.9983L328.667 91.6723L337.23 91.5897L337.214 89.9157Z" fill="#614551"/>
<path d="M345.004 89.8406L336.441 89.9232L336.457 91.5972L345.02 91.5147L345.004 89.8406Z" fill="#614551"/>
<path d="M344.232 89.8475L348.932 89.8022L348.758 71.7744L350.432 71.7583L350.622 91.4601L344.248 91.5215L344.232 89.8475ZM347.861 65.5372C347.853 64.7002 348.49 63.9857 349.391 63.977C350.228 63.9689 350.943 64.6703 350.951 65.5074C350.959 66.3444 350.322 67.0588 349.421 67.0675C348.583 67.0112 347.869 66.3742 347.861 65.5372Z" fill="#614551"/>
</svg>
